<svg width="17" height="16" viewBox="0 0 17 16" fill="none" xmlns="http://www.w3.org/2000/svg">
<path d="M2.57143 3.35714C2.57143 2.99554 2.28013 2.71429 1.92857 2.71429C1.56696 2.71429 1.28571 2.99554 1.28571 3.35714C1.28571 3.7087 1.56696 4 1.92857 4C2.28013 4 2.57143 3.7087 2.57143 3.35714ZM4.17857 8.5C4.17857 8.85156 3.88728 9.14286 3.53571 9.14286H0.642857C0.291295 9.14286 0 8.85156 0 8.5V2.07143C0 1.71987 0.291295 1.42857 0.642857 1.42857H3.53571C3.88728 1.42857 4.17857 1.71987 4.17857 2.07143V8.5ZM15.519 7.00335C15.6295 6.68192 15.6696 6.38058 15.6696 6.23996C15.6897 5.73772 15.5391 5.26562 15.2377 4.86384C15.3482 4.49219 15.3482 4.0904 15.2377 3.68862C15.1373 3.31696 14.9464 2.98549 14.6953 2.74442C14.7556 1.99107 14.5848 1.37835 14.2031 0.926339C13.7712 0.414061 13.1083 0.152901 12.2243 0.142857C12.1842 0.142857 12.0435 0.142857 11.8627 0.142857H11.0993H10.9286C9.49219 0.142857 8.13616 0.614955 7.05134 0.986607C6.41853 1.20759 5.81585 1.41853 5.46429 1.42857C5.12277 1.43862 4.82143 1.71987 4.82143 2.07143V8.51004C4.82143 8.84152 5.10268 9.12277 5.43415 9.1529C5.8058 9.18304 6.77009 10.3783 7.21205 10.9609C7.57366 11.423 7.91518 11.8549 8.22656 12.1663C8.6183 12.558 8.72879 13.1607 8.84933 13.7433C8.95982 14.3359 9.08036 14.9587 9.51228 15.3806C9.63281 15.5011 9.79353 15.5714 9.96429 15.5714C12.2143 15.5714 12.2143 13.7734 12.2143 13C12.2143 12.1763 11.9129 11.5938 11.6518 11.0714C11.5413 10.8504 11.4408 10.75 11.3605 10.4286H14.1429C15.1875 10.4286 16.0614 9.54464 16.0714 8.5C16.0714 7.96763 15.8605 7.38504 15.519 7.00335Z" fill="#9BA0B9"/>
</svg>
