<svg width="17" height="17" viewBox="0 0 17 17" fill="none" xmlns="http://www.w3.org/2000/svg">
<path d="M2.57143 13.0714C2.57143 13.433 2.28013 13.7143 1.92857 13.7143C1.56696 13.7143 1.28571 13.433 1.28571 13.0714C1.28571 12.7199 1.56696 12.4286 1.92857 12.4286C2.28013 12.4286 2.57143 12.7199 2.57143 13.0714ZM4.17857 7.92857C4.17857 7.57701 3.88728 7.28571 3.53571 7.28571H0.642857C0.291295 7.28571 0 7.57701 0 7.92857V14.3571C0 14.7087 0.291295 15 0.642857 15H3.53571C3.88728 15 4.17857 14.7087 4.17857 14.3571V7.92857ZM16.0714 7.92857C16.0714 6.88393 15.1875 6 14.1429 6H11.3605C11.4408 5.67857 11.5413 5.57812 11.6518 5.35714C11.923 4.83482 12.2143 4.25223 12.2143 3.42857C12.2143 2.65513 12.2143 0.857142 9.96429 0.857142C9.79353 0.857142 9.63281 0.927455 9.51228 1.04799C9.08036 1.46987 8.95982 2.09263 8.84933 2.68527C8.72879 3.26786 8.6183 3.87054 8.22656 4.26228C7.91518 4.57366 7.57366 5.00558 7.21205 5.46763C6.77009 6.05022 5.8058 7.24554 5.43415 7.27567C5.10268 7.3058 4.82143 7.58705 4.82143 7.91853V14.3571C4.82143 14.7087 5.12277 14.99 5.46429 15C5.81585 15.01 6.41853 15.221 7.05134 15.442C8.13616 15.8136 9.49219 16.2857 10.9286 16.2857H11.0993H11.8627C12.0435 16.2857 12.1842 16.2857 12.2243 16.2857C13.1083 16.2757 13.7712 16.0145 14.2031 15.5022C14.5848 15.0502 14.7556 14.4375 14.6953 13.6842C14.9464 13.4431 15.1373 13.1116 15.2377 12.74C15.3482 12.3382 15.3482 11.9364 15.2377 11.5647C15.5391 11.1629 15.6897 10.6908 15.6696 10.1886C15.6696 10.048 15.6295 9.74665 15.519 9.42522C15.8605 9.03348 16.0714 8.46094 16.0714 7.92857Z" fill="#1D213A"/>
</svg>
